<mxfile host="app.diagrams.net" agent="Mozilla/5.0 (Windows NT 10.0; Win64; x64) AppleWebKit/537.36 (KHTML, like Gecko) Chrome/135.0.0.0 Safari/537.36" version="26.2.14">
  <diagram name="Page-1" id="2YBvvXClWsGukQMizWep">
    <mxGraphModel dx="627" dy="594" grid="1" gridSize="10" guides="1" tooltips="1" connect="1" arrows="1" fold="1" page="1" pageScale="1" pageWidth="1100" pageHeight="850" math="0" shadow="0">
      <root>
        <mxCell id="0" />
        <mxCell id="1" parent="0" />
        <mxCell id="1x29o_3ZwKhWgOv2N2SG-2" value="&lt;div&gt;Controller&lt;/div&gt;" style="shape=umlLifeline;perimeter=lifelinePerimeter;whiteSpace=wrap;html=1;container=1;dropTarget=0;collapsible=0;recursiveResize=0;outlineConnect=0;portConstraint=eastwest;newEdgeStyle={&quot;curved&quot;:0,&quot;rounded&quot;:0};fontFamily=宋体;fontSize=14;" parent="1" vertex="1">
          <mxGeometry x="20" y="80" width="80" height="410" as="geometry" />
        </mxCell>
        <mxCell id="1x29o_3ZwKhWgOv2N2SG-4" value="" style="html=1;points=[[0,0,0,0,5],[0,1,0,0,-5],[1,0,0,0,5],[1,1,0,0,-5]];perimeter=orthogonalPerimeter;outlineConnect=0;targetShapes=umlLifeline;portConstraint=eastwest;newEdgeStyle={&quot;curved&quot;:0,&quot;rounded&quot;:0};fontFamily=宋体;fontSize=14;" parent="1x29o_3ZwKhWgOv2N2SG-2" vertex="1">
          <mxGeometry x="35" y="50" width="10" height="390" as="geometry" />
        </mxCell>
        <mxCell id="1x29o_3ZwKhWgOv2N2SG-3" value="ServiceImpl" style="shape=umlLifeline;perimeter=lifelinePerimeter;whiteSpace=wrap;html=1;container=1;dropTarget=0;collapsible=0;recursiveResize=0;outlineConnect=0;portConstraint=eastwest;newEdgeStyle={&quot;curved&quot;:0,&quot;rounded&quot;:0};fontFamily=宋体;fontSize=14;" parent="1" vertex="1">
          <mxGeometry x="160" y="81" width="80" height="400" as="geometry" />
        </mxCell>
        <mxCell id="1x29o_3ZwKhWgOv2N2SG-5" value="" style="html=1;points=[[0,0,0,0,5],[0,1,0,0,-5],[1,0,0,0,5],[1,1,0,0,-5]];perimeter=orthogonalPerimeter;outlineConnect=0;targetShapes=umlLifeline;portConstraint=eastwest;newEdgeStyle={&quot;curved&quot;:0,&quot;rounded&quot;:0};fontFamily=宋体;fontSize=14;" parent="1x29o_3ZwKhWgOv2N2SG-3" vertex="1">
          <mxGeometry x="35" y="50" width="10" height="390" as="geometry" />
        </mxCell>
        <mxCell id="1x29o_3ZwKhWgOv2N2SG-6" value="MyBatis&lt;div&gt;Mapper&lt;/div&gt;" style="shape=umlLifeline;perimeter=lifelinePerimeter;whiteSpace=wrap;html=1;container=1;dropTarget=0;collapsible=0;recursiveResize=0;outlineConnect=0;portConstraint=eastwest;newEdgeStyle={&quot;curved&quot;:0,&quot;rounded&quot;:0};fontFamily=宋体;fontSize=14;" parent="1" vertex="1">
          <mxGeometry x="310" y="82" width="80" height="440" as="geometry" />
        </mxCell>
        <mxCell id="1x29o_3ZwKhWgOv2N2SG-7" value="" style="html=1;points=[[0,0,0,0,5],[0,1,0,0,-5],[1,0,0,0,5],[1,1,0,0,-5]];perimeter=orthogonalPerimeter;outlineConnect=0;targetShapes=umlLifeline;portConstraint=eastwest;newEdgeStyle={&quot;curved&quot;:0,&quot;rounded&quot;:0};fontFamily=宋体;fontSize=14;" parent="1x29o_3ZwKhWgOv2N2SG-6" vertex="1">
          <mxGeometry x="35" y="50" width="10" height="390" as="geometry" />
        </mxCell>
        <mxCell id="ad1gADm1mFAbiEcde9q4-3" value="" style="group" parent="1" vertex="1" connectable="0">
          <mxGeometry x="65" y="147" width="130" height="30" as="geometry" />
        </mxCell>
        <mxCell id="ad1gADm1mFAbiEcde9q4-1" value="" style="endArrow=classic;html=1;rounded=0;fontSize=14;fontFamily=宋体;" parent="ad1gADm1mFAbiEcde9q4-3" edge="1">
          <mxGeometry width="50" height="50" relative="1" as="geometry">
            <mxPoint y="30" as="sourcePoint" />
            <mxPoint x="130" y="30" as="targetPoint" />
          </mxGeometry>
        </mxCell>
        <mxCell id="ad1gADm1mFAbiEcde9q4-28" value="MySQL&lt;div&gt;数据库&lt;/div&gt;" style="shape=umlLifeline;perimeter=lifelinePerimeter;whiteSpace=wrap;html=1;container=1;dropTarget=0;collapsible=0;recursiveResize=0;outlineConnect=0;portConstraint=eastwest;newEdgeStyle={&quot;curved&quot;:0,&quot;rounded&quot;:0};fontFamily=宋体;fontSize=14;" parent="1" vertex="1">
          <mxGeometry x="467" y="82" width="80" height="440" as="geometry" />
        </mxCell>
        <mxCell id="ad1gADm1mFAbiEcde9q4-29" value="" style="html=1;points=[[0,0,0,0,5],[0,1,0,0,-5],[1,0,0,0,5],[1,1,0,0,-5]];perimeter=orthogonalPerimeter;outlineConnect=0;targetShapes=umlLifeline;portConstraint=eastwest;newEdgeStyle={&quot;curved&quot;:0,&quot;rounded&quot;:0};fontFamily=宋体;fontSize=14;" parent="ad1gADm1mFAbiEcde9q4-28" vertex="1">
          <mxGeometry x="35" y="50" width="10" height="390" as="geometry" />
        </mxCell>
        <mxCell id="ad1gADm1mFAbiEcde9q4-2" value="&lt;div&gt;调用&lt;/div&gt;&lt;div&gt;delete方法&lt;/div&gt;" style="text;html=1;align=center;verticalAlign=middle;whiteSpace=wrap;rounded=0;fontSize=14;fontFamily=宋体;" parent="1" vertex="1">
          <mxGeometry x="71" y="145" width="110" height="26" as="geometry" />
        </mxCell>
        <mxCell id="tbVlV7XajRI9sciDBmIH-3" value="计算新&lt;div&gt;积分值&lt;/div&gt;" style="text;html=1;align=center;verticalAlign=middle;whiteSpace=wrap;rounded=0;fontSize=14;fontFamily=宋体;spacing=0;" parent="1" vertex="1">
          <mxGeometry x="259" y="322" width="58.56" height="26" as="geometry" />
        </mxCell>
        <mxCell id="tbVlV7XajRI9sciDBmIH-6" value="" style="group" parent="1" vertex="1" connectable="0">
          <mxGeometry x="204.75" y="167" width="145" height="26" as="geometry" />
        </mxCell>
        <mxCell id="1x29o_3ZwKhWgOv2N2SG-51" value="" style="endArrow=none;html=1;rounded=0;startArrow=classic;startFill=1;endFill=1;" parent="tbVlV7XajRI9sciDBmIH-6" edge="1">
          <mxGeometry width="50" height="50" relative="1" as="geometry">
            <mxPoint x="145" y="25" as="sourcePoint" />
            <mxPoint y="25" as="targetPoint" />
          </mxGeometry>
        </mxCell>
        <mxCell id="1x29o_3ZwKhWgOv2N2SG-52" value="removeById(id)" style="text;html=1;align=center;verticalAlign=middle;whiteSpace=wrap;rounded=0;fontSize=14;fontFamily=宋体;spacing=0;" parent="tbVlV7XajRI9sciDBmIH-6" vertex="1">
          <mxGeometry x="12.319999999999993" width="116" height="26" as="geometry" />
        </mxCell>
        <mxCell id="tbVlV7XajRI9sciDBmIH-10" value="" style="group" parent="1" vertex="1" connectable="0">
          <mxGeometry x="204.5" y="357" width="145" height="26" as="geometry" />
        </mxCell>
        <mxCell id="tbVlV7XajRI9sciDBmIH-11" value="" style="endArrow=none;html=1;rounded=0;startArrow=classic;startFill=1;endFill=1;" parent="tbVlV7XajRI9sciDBmIH-10" edge="1">
          <mxGeometry width="50" height="50" relative="1" as="geometry">
            <mxPoint x="145" y="25" as="sourcePoint" />
            <mxPoint y="25" as="targetPoint" />
          </mxGeometry>
        </mxCell>
        <mxCell id="tbVlV7XajRI9sciDBmIH-12" value="updateById(userId)" style="text;html=1;align=center;verticalAlign=middle;whiteSpace=wrap;rounded=0;fontSize=14;fontFamily=宋体;spacing=0;" parent="tbVlV7XajRI9sciDBmIH-10" vertex="1">
          <mxGeometry x="12.319999999999993" width="116" height="26" as="geometry" />
        </mxCell>
        <mxCell id="tbVlV7XajRI9sciDBmIH-13" value="" style="group" parent="1" vertex="1" connectable="0">
          <mxGeometry x="205" y="279" width="140" height="28" as="geometry" />
        </mxCell>
        <mxCell id="tbVlV7XajRI9sciDBmIH-14" value="返回AppUser" style="text;html=1;align=center;verticalAlign=middle;whiteSpace=wrap;rounded=0;fontSize=14;fontFamily=宋体;spacing=0;" parent="tbVlV7XajRI9sciDBmIH-13" vertex="1">
          <mxGeometry x="0.005511594031756306" y="4" width="139.99448840596824" height="26" as="geometry" />
        </mxCell>
        <mxCell id="tbVlV7XajRI9sciDBmIH-15" value="" style="endArrow=classic;html=1;rounded=0;" parent="tbVlV7XajRI9sciDBmIH-13" edge="1">
          <mxGeometry width="50" height="50" relative="1" as="geometry">
            <mxPoint x="139.99448840596824" y="28" as="sourcePoint" />
            <mxPoint y="28" as="targetPoint" />
          </mxGeometry>
        </mxCell>
        <mxCell id="tbVlV7XajRI9sciDBmIH-8" value="select from&lt;div&gt;app_user&lt;/div&gt;" style="text;html=1;align=center;verticalAlign=middle;whiteSpace=wrap;rounded=0;fontSize=14;fontFamily=宋体;spacing=0;" parent="1" vertex="1">
          <mxGeometry x="357" y="221" width="138.23333333333332" height="26" as="geometry" />
        </mxCell>
        <mxCell id="tbVlV7XajRI9sciDBmIH-9" value="" style="endArrow=classic;html=1;rounded=0;fontSize=14;fontFamily=宋体;" parent="1" edge="1">
          <mxGeometry width="50" height="50" relative="1" as="geometry">
            <mxPoint x="357" y="253" as="sourcePoint" />
            <mxPoint x="500" y="253" as="targetPoint" />
          </mxGeometry>
        </mxCell>
        <mxCell id="tbVlV7XajRI9sciDBmIH-16" value="" style="group" parent="1" vertex="1" connectable="0">
          <mxGeometry x="205" y="219" width="145" height="26" as="geometry" />
        </mxCell>
        <mxCell id="tbVlV7XajRI9sciDBmIH-17" value="" style="endArrow=none;html=1;rounded=0;startArrow=classic;startFill=1;endFill=1;" parent="tbVlV7XajRI9sciDBmIH-16" edge="1">
          <mxGeometry width="50" height="50" relative="1" as="geometry">
            <mxPoint x="145" y="25" as="sourcePoint" />
            <mxPoint y="25" as="targetPoint" />
          </mxGeometry>
        </mxCell>
        <mxCell id="tbVlV7XajRI9sciDBmIH-18" value="selectById(userId)" style="text;html=1;align=center;verticalAlign=middle;whiteSpace=wrap;rounded=0;fontSize=14;fontFamily=宋体;spacing=0;" parent="tbVlV7XajRI9sciDBmIH-16" vertex="1">
          <mxGeometry x="19.319999999999993" width="116" height="26" as="geometry" />
        </mxCell>
        <mxCell id="tbVlV7XajRI9sciDBmIH-19" value="update app_user" style="text;html=1;align=center;verticalAlign=middle;whiteSpace=wrap;rounded=0;fontSize=14;fontFamily=宋体;spacing=0;" parent="1" vertex="1">
          <mxGeometry x="356" y="373" width="138.23333333333332" height="26" as="geometry" />
        </mxCell>
        <mxCell id="tbVlV7XajRI9sciDBmIH-20" value="" style="endArrow=classic;html=1;rounded=0;fontSize=14;fontFamily=宋体;" parent="1" edge="1">
          <mxGeometry width="50" height="50" relative="1" as="geometry">
            <mxPoint x="354.62" y="400" as="sourcePoint" />
            <mxPoint x="497.62" y="400" as="targetPoint" />
          </mxGeometry>
        </mxCell>
        <mxCell id="ad1gADm1mFAbiEcde9q4-31" value="delete from&lt;div&gt;points_record&lt;/div&gt;" style="text;html=1;align=center;verticalAlign=middle;whiteSpace=wrap;rounded=0;fontSize=14;fontFamily=宋体;spacing=0;" parent="1" vertex="1">
          <mxGeometry x="357" y="179" width="138.23333333333332" height="26" as="geometry" />
        </mxCell>
        <mxCell id="ad1gADm1mFAbiEcde9q4-34" value="" style="endArrow=classic;html=1;rounded=0;fontSize=14;fontFamily=宋体;sourcePerimeterSpacing=0;endSize=6;" parent="1" edge="1">
          <mxGeometry width="50" height="50" relative="1" as="geometry">
            <mxPoint x="357" y="209" as="sourcePoint" />
            <mxPoint x="500" y="209" as="targetPoint" />
          </mxGeometry>
        </mxCell>
        <mxCell id="NB46rLQ9DUsZgHJJ-fcK-2" value="返回查询数据" style="text;html=1;align=center;verticalAlign=middle;whiteSpace=wrap;rounded=0;fontSize=14;fontFamily=宋体;spacing=0;" parent="1" vertex="1">
          <mxGeometry x="356.00551159403176" y="264" width="139.99448840596824" height="26" as="geometry" />
        </mxCell>
        <mxCell id="NB46rLQ9DUsZgHJJ-fcK-3" value="" style="endArrow=classic;html=1;rounded=0;sourcePerimeterSpacing=0;strokeWidth=1;" parent="1" edge="1">
          <mxGeometry width="50" height="50" relative="1" as="geometry">
            <mxPoint x="495.99448840596824" y="288" as="sourcePoint" />
            <mxPoint x="356" y="288" as="targetPoint" />
          </mxGeometry>
        </mxCell>
        <mxCell id="tbVlV7XajRI9sciDBmIH-22" value="操作结果&lt;span style=&quot;color: rgba(0, 0, 0, 0); font-family: monospace; font-size: 0px; text-align: start; text-wrap-mode: nowrap;&quot;&gt;%3CmxGraphModel%3E%3Croot%3E%3CmxCell%20id%3D%220%22%2F%3E%3CmxCell%20id%3D%221%22%20parent%3D%220%22%2F%3E%3CmxCell%20id%3D%222%22%20value%3D%22%E8%BF%94%E5%9B%9E%E6%9F%A5%E8%AF%A2%E6%95%B0%E6%8D%AE%22%20style%3D%22text%3Bhtml%3D1%3Balign%3Dcenter%3BverticalAlign%3Dmiddle%3BwhiteSpace%3Dwrap%3Brounded%3D0%3BfontSize%3D14%3BfontFamily%3D%E5%AE%8B%E4%BD%93%3Bspacing%3D0%3B%22%20vertex%3D%221%22%20parent%3D%221%22%3E%3CmxGeometry%20x%3D%22356.00551159403176%22%20y%3D%22264%22%20width%3D%22139.99448840596824%22%20height%3D%2226%22%20as%3D%22geometry%22%2F%3E%3C%2FmxCell%3E%3CmxCell%20id%3D%223%22%20value%3D%22%22%20style%3D%22endArrow%3Dclassic%3Bhtml%3D1%3Brounded%3D0%3BsourcePerimeterSpacing%3D0%3BstrokeWidth%3D1%3B%22%20edge%3D%221%22%20parent%3D%221%22%3E%3CmxGeometry%20width%3D%2250%22%20height%3D%2250%22%20relative%3D%221%22%20as%3D%22geometry%22%3E%3CmxPoint%20x%3D%22495.99448840596824%22%20y%3D%22288%22%20as%3D%22sourcePoint%22%2F%3E%3CmxPoint%20x%3D%22356%22%20y%3D%22288%22%20as%3D%22targetPoint%22%2F%3E%3C%2FmxGeometry%3E%3C%2FmxCell%3E%3C%2Froot%3E%3C%2FmxGraphModel%3E&lt;/span&gt;" style="text;html=1;align=center;verticalAlign=middle;whiteSpace=wrap;rounded=0;fontSize=14;fontFamily=宋体;spacing=0;" parent="1" vertex="1">
          <mxGeometry x="357.00551159403176" y="412" width="139.99448840596824" height="26" as="geometry" />
        </mxCell>
        <mxCell id="tbVlV7XajRI9sciDBmIH-23" value="" style="endArrow=classic;html=1;rounded=0;sourcePerimeterSpacing=0;strokeWidth=1;" parent="1" edge="1">
          <mxGeometry width="50" height="50" relative="1" as="geometry">
            <mxPoint x="496.99448840596824" y="436" as="sourcePoint" />
            <mxPoint x="357" y="436" as="targetPoint" />
          </mxGeometry>
        </mxCell>
        <mxCell id="tbVlV7XajRI9sciDBmIH-24" value="操作结果&lt;span style=&quot;color: rgba(0, 0, 0, 0); font-family: monospace; font-size: 0px; text-align: start; text-wrap-mode: nowrap;&quot;&gt;%3CmxGraphModel%3E%3Croot%3E%3CmxCell%20id%3D%220%22%2F%3E%3CmxCell%20id%3D%221%22%20parent%3D%220%22%2F%3E%3CmxCell%20id%3D%222%22%20value%3D%22%E8%BF%94%E5%9B%9E%E6%9F%A5%E8%AF%A2%E6%95%B0%E6%8D%AE%22%20style%3D%22text%3Bhtml%3D1%3Balign%3Dcenter%3BverticalAlign%3Dmiddle%3BwhiteSpace%3Dwrap%3Brounded%3D0%3BfontSize%3D14%3BfontFamily%3D%E5%AE%8B%E4%BD%93%3Bspacing%3D0%3B%22%20vertex%3D%221%22%20parent%3D%221%22%3E%3CmxGeometry%20x%3D%22356.00551159403176%22%20y%3D%22264%22%20width%3D%22139.99448840596824%22%20height%3D%2226%22%20as%3D%22geometry%22%2F%3E%3C%2FmxCell%3E%3CmxCell%20id%3D%223%22%20value%3D%22%22%20style%3D%22endArrow%3Dclassic%3Bhtml%3D1%3Brounded%3D0%3BsourcePerimeterSpacing%3D0%3BstrokeWidth%3D1%3B%22%20edge%3D%221%22%20parent%3D%221%22%3E%3CmxGeometry%20width%3D%2250%22%20height%3D%2250%22%20relative%3D%221%22%20as%3D%22geometry%22%3E%3CmxPoint%20x%3D%22495.99448840596824%22%20y%3D%22288%22%20as%3D%22sourcePoint%22%2F%3E%3CmxPoint%20x%3D%22356%22%20y%3D%22288%22%20as%3D%22targetPoint%22%2F%3E%3C%2FmxGeometry%3E%3C%2FmxCell%3E%3C%2Froot%3E%3C%2FmxGraphModel%3E&lt;/span&gt;" style="text;html=1;align=center;verticalAlign=middle;whiteSpace=wrap;rounded=0;fontSize=14;fontFamily=宋体;spacing=0;" parent="1" vertex="1">
          <mxGeometry x="205.00551159403176" y="430" width="139.99448840596824" height="26" as="geometry" />
        </mxCell>
        <mxCell id="tbVlV7XajRI9sciDBmIH-25" value="" style="endArrow=classic;html=1;rounded=0;sourcePerimeterSpacing=0;strokeWidth=1;" parent="1" edge="1">
          <mxGeometry width="50" height="50" relative="1" as="geometry">
            <mxPoint x="344.99448840596824" y="454" as="sourcePoint" />
            <mxPoint x="205" y="454" as="targetPoint" />
          </mxGeometry>
        </mxCell>
        <mxCell id="tbVlV7XajRI9sciDBmIH-28" value="操作结果&lt;span style=&quot;color: rgba(0, 0, 0, 0); font-family: monospace; font-size: 0px; text-align: start; text-wrap-mode: nowrap;&quot;&gt;%3CmxGraphModel%3E%3Croot%3E%3CmxCell%20id%3D%220%22%2F%3E%3CmxCell%20id%3D%221%22%20parent%3D%220%22%2F%3E%3CmxCell%20id%3D%222%22%20value%3D%22%E8%BF%94%E5%9B%9E%E6%9F%A5%E8%AF%A2%E6%95%B0%E6%8D%AE%22%20style%3D%22text%3Bhtml%3D1%3Balign%3Dcenter%3BverticalAlign%3Dmiddle%3BwhiteSpace%3Dwrap%3Brounded%3D0%3BfontSize%3D14%3BfontFamily%3D%E5%AE%8B%E4%BD%93%3Bspacing%3D0%3B%22%20vertex%3D%221%22%20parent%3D%221%22%3E%3CmxGeometry%20x%3D%22356.00551159403176%22%20y%3D%22264%22%20width%3D%22139.99448840596824%22%20height%3D%2226%22%20as%3D%22geometry%22%2F%3E%3C%2FmxCell%3E%3CmxCell%20id%3D%223%22%20value%3D%22%22%20style%3D%22endArrow%3Dclassic%3Bhtml%3D1%3Brounded%3D0%3BsourcePerimeterSpacing%3D0%3BstrokeWidth%3D1%3B%22%20edge%3D%221%22%20parent%3D%221%22%3E%3CmxGeometry%20width%3D%2250%22%20height%3D%2250%22%20relative%3D%221%22%20as%3D%22geometry%22%3E%3CmxPoint%20x%3D%22495.99448840596824%22%20y%3D%22288%22%20as%3D%22sourcePoint%22%2F%3E%3CmxPoint%20x%3D%22356%22%20y%3D%22288%22%20as%3D%22targetPoint%22%2F%3E%3C%2FmxGeometry%3E%3C%2FmxCell%3E%3C%2Froot%3E%3C%2FmxGraphModel%3E&lt;/span&gt;" style="text;html=1;align=center;verticalAlign=middle;whiteSpace=wrap;rounded=0;fontSize=14;fontFamily=宋体;spacing=0;" parent="1" vertex="1">
          <mxGeometry x="57.49551159403177" y="438" width="139.99448840596824" height="26" as="geometry" />
        </mxCell>
        <mxCell id="tbVlV7XajRI9sciDBmIH-29" value="" style="endArrow=classic;html=1;rounded=0;sourcePerimeterSpacing=0;strokeWidth=1;" parent="1" edge="1">
          <mxGeometry width="50" height="50" relative="1" as="geometry">
            <mxPoint x="193.49448840596824" y="467" as="sourcePoint" />
            <mxPoint x="66" y="467" as="targetPoint" />
          </mxGeometry>
        </mxCell>
        <mxCell id="tbVlV7XajRI9sciDBmIH-31" value="" style="endArrow=classic;html=1;rounded=0;" parent="1" edge="1">
          <mxGeometry width="50" height="50" relative="1" as="geometry">
            <mxPoint x="204.5" y="320" as="sourcePoint" />
            <mxPoint x="204.5" y="350" as="targetPoint" />
            <Array as="points">
              <mxPoint x="254.5" y="320" />
              <mxPoint x="254.5" y="350" />
            </Array>
          </mxGeometry>
        </mxCell>
      </root>
    </mxGraphModel>
  </diagram>
</mxfile>
